<svg xmlns="http://www.w3.org/2000/svg" width="663.763" height="524.454" viewBox="0 0 663.763 524.454">
  <g id="quote" transform="translate(411.454 -904.766)">
    <path id="left" d="M13.212,330.294s14.6-58.351,34.016-102.029S126.613,83.674,114.5,84.775-30.422,218.559-68.261,330.294s-24.583,145.589-5.5,194.873S28.163,617.87,92.482,607.74c80.958-12.749,127.838-127.115,106.808-186.97s-30.736-71.179-84.789-90.477S13.212,330.294,13.212,330.294Z" transform="translate(-319 820)" fill="#09e1ce"/>
    <path id="right" d="M13.212,330.294s14.6-58.351,34.016-102.029S126.613,83.674,114.5,84.775-30.422,218.559-68.261,330.294s-24.583,145.589-5.5,194.873S28.163,617.87,92.482,607.74c80.958-12.749,127.838-127.115,106.808-186.97s-30.736-71.179-84.789-90.477S13.212,330.294,13.212,330.294Z" transform="translate(48 820)" fill="#09e1ce"/>
  </g>
</svg>
